<svg width="400" height="400" xmlns="http://www.w3.org/2000/svg" preserveAspectRatio="xMidYMid meet">

 <g>
  <title>background</title>
  <rect fill="none" id="canvas_background" height="402" width="402" y="-1" x="-1"/>
 </g>
 <g>
  <title>Layer 1</title>
  <g fill="#ec681b" id="layer101">
   <path stroke="null" id="svg_1" d="m22.516423,305.053724c-9.678931,-2.062986 -18.089264,-9.846068 -21.472191,-19.87968c-0.798747,-2.48496 -0.845732,-6.282729 -0.986687,-84.723068c-0.140955,-91.052683 -0.281911,-85.567017 2.960061,-92.459264c2.30227,-4.782376 7.940482,-10.455586 12.920903,-12.89366c6.859825,-3.328909 -8.457318,-3.094478 183.476818,-3.094478c150.728203,0 173.797888,0.093772 176.663979,0.703291c9.537975,2.0161 18.042279,9.611638 21.237266,18.941959l1.033672,3.094478l0.046985,83.222715c0,91.990404 0.234926,85.520131 -3.007046,92.131062c-3.101017,6.329615 -8.833199,11.346421 -16.021919,14.065811l-3.758808,1.406581l-175.0195,0.093772c-148.801814,0.046886 -175.489351,-0.046886 -178.073532,-0.609518zm350.790762,-4.407287c9.021139,-1.172151 16.021919,-6.657817 19.498817,-15.331734l1.127642,-2.71939l0.140955,-81.956792c0.09397,-71.501206 0,-82.33188 -0.610806,-84.957499c-2.020359,-8.814575 -8.833199,-15.84748 -17.478457,-18.144896c-1.785434,-0.46886 -37.447125,-0.609518 -176.570008,-0.609518l-174.314724,0l-3.335942,1.031493c-3.899763,1.265923 -8.363348,4.079085 -10.806573,6.845361c-2.11433,2.438074 -4.69851,7.642424 -5.356301,10.830674c-0.328896,1.641011 -0.422866,28.03785 -0.375881,84.676182l0.140955,82.284994l1.080657,2.71939c3.476897,8.580145 10.477677,14.159583 19.122936,15.331734c4.040719,0.515746 343.649027,0.515746 347.73673,0z"/>
   <path stroke="null" id="svg_2" d="m111.412233,285.080272c-0.798747,-0.797063 -0.798747,-26.209295 0,-27.006357c0.328896,-0.328202 1.879404,-0.562632 3.664838,-0.562632c1.691464,0 3.335942,-0.23443 3.617853,-0.515746c1.362568,-1.359695 1.973374,1.078379 1.127642,4.172857l-0.469851,1.500353l2.772121,-2.109872c1.503523,-1.172151 3.194987,-2.766276 3.758808,-3.516453c0.563821,-0.797063 1.456538,-1.406581 1.973374,-1.406581c0.516836,0 2.11433,1.078379 3.523883,2.391188c1.456538,1.265923 3.664838,2.860048 4.88645,3.516453c1.973374,0.984607 2.30227,1.312809 2.30227,2.531846c0,1.734783 -0.986687,2.25053 -2.866091,1.547239c-1.127642,-0.421974 -1.362568,-0.421974 -1.362568,0.187544c0,0.421974 0.328896,0.984607 0.798747,1.312809c0.704777,0.515746 0.704777,0.937721 0.18794,4.266629c-0.328896,2.0161 -1.033672,4.782376 -1.503523,6.048299c-1.268598,3.375795 -1.221613,3.516453 1.456538,3.516453c2.30227,0 2.349255,0.046886 2.349255,1.406581l0,1.406581l-9.20908,0l-9.162095,0l0.140955,-1.265923c0.140955,-1.219037 0.281911,-1.312809 2.631166,-1.453467c1.879404,-0.093772 2.39624,-0.281316 2.067344,-0.703291c-0.234926,-0.328202 -0.798747,-1.734783 -1.221613,-3.141364c-0.422866,-1.406581 -1.080657,-3.18825 -1.409553,-3.985313l-0.657791,-1.406581l-0.046985,2.48496c-0.046985,3.282023 -1.080657,4.313515 -4.275644,4.313515l-2.349255,0l0,2.95382c0,2.813162 -0.516836,4.079085 -1.644479,4.079085c-0.281911,0 -0.751762,-0.23443 -1.080657,-0.562632zm18.230219,-5.298122c0,-0.375088 -0.422866,-0.703291 -0.939702,-0.703291c-1.127642,0 -1.879404,-1.312809 -1.879404,-3.375795c-0.046985,-0.843949 -0.328896,-2.71939 -0.657791,-4.172857c-0.422866,-1.687897 -0.469851,-2.906934 -0.18794,-3.375795c0.375881,-0.656405 0.18794,-0.797063 -1.174628,-0.797063c-0.892717,0 -1.879404,-0.328202 -2.2083,-0.703291c-0.422866,-0.515746 -0.751762,-0.562632 -1.221613,-0.187544c-0.328896,0.281316 -1.033672,0.375088 -1.597493,0.187544c-1.127642,-0.375088 -1.268598,0.750177 -0.281911,2.531846c0.516836,0.890835 0.657791,0.984607 0.892717,0.328202c0.18794,-0.421974 0.798747,-0.750177 1.362568,-0.750177c0.939702,0 1.315583,0.562632 2.49021,3.657111c0.845732,2.156758 1.409553,4.50106 1.409553,5.813869l0,2.25053l2.020359,0c1.456538,0 1.973374,-0.187544 1.973374,-0.703291zm2.30227,-8.345715l0.845732,-4.547946l-2.30227,0c-2.020359,0 -2.255285,0.093772 -1.832419,0.843949c0.234926,0.421974 0.798747,2.672504 1.268598,5.016806c0.469851,2.297416 0.892717,3.985313 0.986687,3.703997c0.09397,-0.23443 0.516836,-2.48496 1.033672,-5.016806zm-14.988247,2.0161c0,-0.46886 -0.422866,-2.0161 -0.986687,-3.375795c-0.986687,-2.438074 -0.986687,-4.079085 -0.140955,-7.970626c0.234926,-1.125265 0.140955,-1.312809 -0.704777,-1.312809c-0.939702,0 -0.986687,0.187544 -0.986687,6.798475l0,6.798475l1.409553,0c1.080657,0 1.409553,-0.187544 1.409553,-0.937721zm14.565381,-9.517865c0,-0.093772 -0.798747,-0.937721 -1.832419,-1.922328l-1.785434,-1.734783l-1.503523,1.875441l-1.550508,1.922328l3.335942,0c1.832419,0 3.335942,-0.046886 3.335942,-0.140658z"/>
   <path stroke="null" id="svg_3" d="m259.979122,285.174044c-1.362568,-0.562632 -1.738449,-1.219037 -1.409553,-2.625618c0.234926,-0.890835 0.610806,-1.125265 1.691464,-1.125265c1.409553,0 1.409553,-0.046886 1.409553,-2.48496l0,-2.48496l-1.550508,0.187544c-1.738449,0.187544 -2.866091,-0.750177 -2.39624,-1.969214c0.18794,-0.421974 1.127642,-1.219037 2.11433,-1.734783l1.832419,-0.890835l0,-3.047592l0,-3.000706l-1.738449,-0.140658c-1.644479,-0.140658 -1.785434,-0.281316 -1.785434,-1.547239c0,-1.265923 0.18794,-1.406581 1.550508,-1.547239l1.503523,-0.140658l0,-2.71939c0,-3.000706 0.610806,-3.985313 2.443225,-3.703997c0.986687,0.140658 1.080657,0.421974 1.221613,3.094478l0.140955,2.906934l1.597493,0c1.550508,0 1.644479,0.093772 1.644479,1.641011c0,1.547239 -0.09397,1.641011 -1.644479,1.641011c-1.644479,0 -1.644479,0 -1.644479,2.109872c0,1.641011 0.140955,2.0161 0.704777,1.828555c0.469851,-0.187544 0.610806,-0.656405 0.422866,-1.406581c-0.234926,-0.890835 -0.09397,-1.125265 0.610806,-1.125265c1.644479,0 2.678151,-1.687897 3.007046,-5.016806c0.18794,-1.781669 0.563821,-3.235137 0.939702,-3.469567c1.033672,-0.656405 10.477677,-0.515746 11.135469,0.140658c0.328896,0.328202 0.563821,1.875441 0.563821,3.750883l0,3.18825l1.597493,0c3.148002,0 3.476897,2.906934 0.328896,3.18825c-1.503523,0.140658 -1.503523,0.187544 -0.704777,1.078379c0.704777,0.797063 0.751762,1.125265 0.234926,2.766276c-0.281911,1.031493 -1.503523,3.047592 -2.631166,4.454173c-2.11433,2.531846 -2.11433,2.531846 -1.033672,3.094478c0.563821,0.328202 2.161315,0.937721 3.570868,1.359695c2.678151,0.797063 3.664838,1.734783 3.194987,3.000706c-0.469851,1.172151 -3.664838,0.937721 -7.752542,-0.656405l-3.664838,-1.406581l-3.711823,1.641011c-4.087704,1.781669 -6.061078,2.062986 -6.718869,0.890835c-0.375881,-0.656405 -0.469851,-0.656405 -0.986687,0c-0.704777,0.797063 -2.49021,0.937721 -4.087704,0.281316zm6.296003,-3.750883c0.422866,-0.23443 2.020359,-0.984607 3.523883,-1.594125l2.725136,-1.172151l-2.161315,-2.625618c-1.174628,-1.453467 -2.11433,-2.906934 -2.11433,-3.282023c0,-0.562632 -0.375881,-0.46886 -1.644479,0.328202l-1.644479,1.078379l0,3.891541c0,2.109872 0.09397,3.844655 0.234926,3.844655c0.140955,0 0.610806,-0.187544 1.080657,-0.46886zm11.840245,-6.188957c0.892717,-0.703291 2.349255,-2.766276 2.349255,-3.282023c0,-0.23443 -1.879404,-0.375088 -4.228659,-0.375088c-2.30227,0 -4.228659,0.140658 -4.228659,0.375088c0,0.187544 0.845732,1.312809 1.926389,2.531846c1.973374,2.344302 2.2083,2.391188 4.181674,0.750177zm1.691464,-7.92374c-1.127642,-0.890835 -1.221613,-1.265923 -1.221613,-4.219743l0,-3.235137l-2.819106,0l-2.819106,0l0,1.828555c0,2.25053 -0.657791,4.172857 -1.973374,5.579438l-0.986687,1.031493l5.544242,0l5.544242,0l-1.268598,-0.984607z"/>
   <path stroke="null" id="svg_4" d="m178.976808,284.28321c-0.234926,-0.515746 -0.469851,-1.453467 -0.469851,-2.156758c0,-1.172151 -0.046985,-1.172151 -1.973374,0.703291c-1.691464,1.594125 -2.30227,1.875441 -3.664838,1.781669l-1.644479,-0.140658l-0.140955,-5.485666l-0.140955,-5.485666l-1.973374,-0.140658c-1.832419,-0.140658 -1.973374,-0.23443 -1.973374,-1.547239c0,-1.265923 0.140955,-1.406581 1.785434,-1.547239c1.597493,-0.140658 1.738449,-0.281316 1.738449,-1.594125c0,-1.406581 -0.046985,-1.453467 -0.892717,-0.656405c-1.033672,0.937721 -2.30227,0.843949 -3.007046,-0.187544c-0.328896,-0.562632 -0.140955,-1.219037 0.704777,-2.438074c0.657791,-0.937721 1.644479,-3.047592 2.2083,-4.688604c1.503523,-4.172857 1.644479,-4.360401 3.148002,-4.360401c1.127642,0 1.409553,0.23443 1.503523,1.312809c0.140955,1.172151 0.328896,1.265923 2.255285,1.265923c1.456538,0 2.349255,-0.281316 3.007046,-0.937721c0.845732,-0.843949 1.550508,-0.937721 6.859825,-0.937721c3.241972,0 6.296003,0.23443 6.81284,0.46886c0.798747,0.46886 0.892717,1.078379 0.892717,7.032906c0,4.313515 -0.18794,6.610931 -0.516836,6.845361c-0.375881,0.23443 -0.281911,0.46886 0.234926,0.750177c1.174628,0.656405 0.892717,1.828555 -0.986687,3.797769l-1.785434,1.781669l1.033672,0.797063c0.516836,0.421974 1.738449,1.406581 2.725136,2.109872c2.2083,1.734783 2.161315,3.282023 -0.140955,3.516453c-1.597493,0.140658 -3.335942,-0.797063 -6.061078,-3.375795c-0.845732,-0.750177 -1.550508,-1.125265 -1.550508,-0.797063c0,0.843949 -1.597493,2.813162 -3.382927,4.125971c-1.832419,1.312809 -3.899763,1.406581 -4.60454,0.187544zm6.718869,-5.67321c0.704777,0 0.704777,-0.140658 -0.09397,-1.500353c-0.469851,-0.843949 -1.127642,-2.344302 -1.456538,-3.282023c-0.281911,-0.984607 -0.845732,-1.781669 -1.221613,-1.781669c-0.516836,0 -0.657791,0.937721 -0.657791,4.547946l0,4.547946l1.315583,-1.265923c0.704777,-0.703291 1.691464,-1.265923 2.11433,-1.265923zm-7.987467,-0.46886c1.221613,0 1.268598,-0.093772 1.268598,-2.344302l0,-2.344302l-2.349255,0l-2.349255,0l0,3.375795l0,3.328909l1.080657,-0.984607c0.610806,-0.562632 1.644479,-1.031493 2.349255,-1.031493zm13.672664,-5.485666c0.18794,-0.46886 -0.375881,-0.609518 -2.067344,-0.609518l-2.349255,0l0.798747,1.594125l0.751762,1.641011l1.315583,-1.031493c0.704777,-0.562632 1.409553,-1.312809 1.550508,-1.594125zm-12.404067,-3.938427c0,-1.547239 -0.140955,-1.875441 -0.751762,-1.641011c-0.422866,0.140658 -1.456538,0.281316 -2.349255,0.281316c-1.503523,0 -1.597493,0.093772 -1.597493,1.641011l0,1.641011l2.349255,0l2.349255,0l0,-1.922328zm11.746275,-0.890835l0,-1.406581l-4.228659,0l-4.228659,0l0,1.406581l0,1.406581l4.228659,0l4.228659,0l0,-1.406581zm-11.746275,-4.454173l0,-1.641011l-2.819106,0c-2.255285,0 -2.866091,0.187544 -3.288957,0.890835c-0.751762,1.406581 -0.657791,1.453467 2.30227,1.453467c1.550508,0 2.960061,0.23443 3.101017,0.46886c0.516836,0.843949 0.704777,0.515746 0.704777,-1.172151zm12.216126,-1.875441c0,-1.172151 0,-1.172151 -4.463585,-1.172151c-4.463585,0 -4.463585,0 -4.463585,1.172151c0,1.172151 0,1.172151 4.463585,1.172151c4.463585,0 4.463585,0 4.463585,-1.172151z"/>
   <path stroke="null" id="svg_5" d="m204.912584,284.611412c-0.375881,-0.375088 -0.563821,-2.203644 -0.563821,-5.626324c0,-4.876148 -0.046985,-5.063692 -0.892717,-4.50106c-0.704777,0.421974 -1.080657,0.421974 -1.644479,-0.046886c-1.080657,-0.890835 -0.939702,-1.828555 0.563821,-3.750883c0.704777,-0.890835 1.926389,-2.813162 2.678151,-4.219743c1.409553,-2.672504 2.584181,-3.375795 3.758808,-2.391188c0.422866,0.328202 3.946748,0.562632 10.665618,0.609518l10.007826,0.093772l0,1.406581c0,1.312809 -0.140955,1.406581 -1.973374,1.547239l-2.020359,0.140658l0,7.267336c0,7.173564 0,7.267336 -1.221613,8.486373c-1.127642,1.125265 -1.409553,1.172151 -4.322629,0.937721c-5.450272,-0.46886 -7.282691,-1.594125 -6.155048,-3.703997c0.422866,-0.797063 0.798747,-0.890835 2.443225,-0.656405c1.080657,0.187544 2.866091,0.46886 3.993734,0.609518l1.973374,0.281316l0,-6.657817l0,-6.610931l-5.873138,0c-5.450272,0 -5.873138,-0.046886 -6.389974,-0.984607c-0.516836,-0.984607 -0.516836,-0.984607 -1.268598,0.328202c-0.610806,1.078379 -0.845732,3.094478 -1.033672,9.564751c-0.234926,7.783082 -0.281911,8.205056 -1.174628,8.345715c-0.516836,0.046886 -1.221613,-0.140658 -1.550508,-0.46886z"/>
   <path stroke="null" id="svg_6" d="m315.2336,283.579919c-0.892717,-0.562632 -3.007046,-1.594125 -4.69851,-2.25053c-1.785434,-0.703291 -3.241972,-1.594125 -3.476897,-2.109872c-0.422866,-0.890835 -0.516836,-0.890835 -1.409553,0.46886c-0.563821,0.750177 -2.161315,2.062986 -3.570868,2.860048c-2.255285,1.265923 -3.007046,1.406581 -6.296003,1.453467c-3.382927,0 -3.805793,-0.093772 -3.946748,-0.890835c-0.234926,-1.078379 1.080657,-2.156758 2.584181,-2.156758c0.939702,0 1.033672,-0.140658 0.610806,-0.890835c-0.704777,-1.312809 -0.563821,-8.017512 0.140955,-9.424093c0.610806,-1.172151 0.610806,-1.172151 -0.845732,-1.031493c-0.892717,0.093772 -1.691464,-0.093772 -2.067344,-0.515746c-0.751762,-0.937721 0.140955,-1.828555 4.60454,-4.313515c3.194987,-1.781669 4.228659,-3.047592 2.537195,-3.047592c-1.174628,0 -4.933436,-1.453467 -5.873138,-2.25053c-1.033672,-0.843949 -1.080657,-1.687897 -0.140955,-2.438074c0.892717,-0.750177 4.275644,0.093772 6.624899,1.734783l1.644479,1.078379l1.456538,-2.344302c1.127642,-1.781669 1.738449,-2.344302 2.443225,-2.25053c0.657791,0.093772 1.033672,0.562632 1.127642,1.406581l0.140955,1.265923l6.671884,0.140658l6.671884,0.140658l0.140955,1.312809c0.18794,1.500353 -1.785434,5.20435 -3.194987,5.954527c-1.221613,0.656405 -1.879404,0.562632 -1.879404,-0.23443c0,-0.375088 -0.422866,-0.703291 -0.939702,-0.703291c-1.127642,0 -1.174628,-0.609518 -0.18794,-2.109872l0.751762,-1.172151l-2.39624,0c-1.738449,0 -2.39624,0.187544 -2.39624,0.656405c0,1.219037 4.181674,4.407287 6.953795,5.345008c2.443225,0.797063 2.678151,0.984607 2.678151,2.25053c0,1.219037 -0.140955,1.359695 -1.503523,1.359695l-1.550508,0l0,4.547946c0,2.813162 -0.18794,4.641718 -0.516836,4.876148c-0.281911,0.187544 0.234926,0.703291 1.268598,1.312809c2.349255,1.312809 2.819106,3.094478 0.798747,3.047592c-0.704777,0 -2.067344,-0.46886 -2.960061,-1.078379zm-12.732962,-4.172857c1.315583,-1.219037 2.39624,-3.563339 2.39624,-5.298122c0,-1.031493 -0.140955,-1.172151 -1.033672,-0.937721c-0.610806,0.140658 -1.973374,0.281316 -3.054032,0.281316l-2.020359,0l0,3.985313l0,3.985313l1.315583,-0.515746c0.704777,-0.281316 1.785434,-0.937721 2.39624,-1.500353zm11.69929,-3.938427l-0.140955,-3.18825l-3.054032,-0.140658l-3.101017,-0.140658l-0.422866,2.531846l-0.469851,2.48496l1.174628,-0.187544c0.657791,-0.093772 2.11433,0.281316 3.288957,0.797063c1.174628,0.515746 2.30227,0.937721 2.49021,0.937721c0.18794,0.046886 0.328896,-1.359695 0.234926,-3.094478zm-14.941262,-6.657817c0,-0.890835 -0.939702,-1.031493 -1.973374,-0.328202c-1.033672,0.750177 -1.033672,0.750177 0.469851,0.750177c0.798747,0 1.503523,-0.187544 1.503523,-0.421974zm14.00156,-0.937721c-1.174628,-0.750177 -2.30227,-1.594125 -2.49021,-1.922328c-0.234926,-0.375088 -0.704777,-0.187544 -1.597493,0.609518c-0.657791,0.609518 -1.738449,1.453467 -2.39624,1.875441c-1.127642,0.750177 -0.939702,0.797063 3.758808,0.797063l4.88645,0l-2.161315,-1.359695zm-8.880184,-2.48496c0.986687,-0.562632 2.2083,-1.828555 2.819106,-2.813162l1.033672,-1.781669l-1.268598,0c-1.691464,0 -4.60454,2.71939 -4.745495,4.360401c-0.09397,1.547239 -0.09397,1.547239 2.161315,0.23443z"/>
   <path stroke="null" id="svg_7" d="m77.817886,283.955007c-0.18794,-0.187544 -0.328896,-3.422681 -0.328896,-7.22045l0,-6.892247l-1.362568,0.23443c-2.11433,0.281316 -2.39624,-1.359695 -0.610806,-3.844655c0.751762,-1.078379 1.879404,-3.422681 2.443225,-5.20435c0.610806,-1.828555 1.221613,-3.610225 1.409553,-3.985313c0.469851,-0.984607 2.39624,-1.172151 2.913076,-0.281316c0.328896,0.562632 0.657791,0.656405 1.315583,0.281316c1.174628,-0.609518 16.726696,-0.609518 17.901323,0c0.798747,0.46886 0.892717,1.031493 0.892717,5.063692c0,2.95382 -0.18794,4.782376 -0.563821,5.157464c-0.328896,0.328202 -2.020359,0.562632 -4.228659,0.562632c-3.570868,0 -3.664838,0.046886 -3.664838,1.172151c0,1.125265 0,1.125265 5.309316,1.265923l5.262331,0.140658l0,1.172151c0,1.172151 -0.046985,1.172151 -4.60454,1.406581l-4.651525,0.23443l1.362568,1.359695c0.751762,0.750177 2.819106,2.25053 4.60454,3.328909c2.819106,1.687897 3.288957,2.156758 3.288957,3.282023c0,3.094478 -2.349255,2.625618 -7.846512,-1.594125l-3.148002,-2.391188l-0.140955,3.422681l-0.140955,3.375795l-1.409553,0l-1.409553,0l-0.234926,-3.891541l-0.234926,-3.891541l-1.409553,1.453467c-2.11433,2.25053 -5.168361,4.219743 -6.530929,4.219743c-0.845732,0 -1.174628,0.281316 -1.315583,1.078379c-0.09397,0.703291 -0.516836,1.078379 -1.315583,1.172151c-0.657791,0.093772 -1.362568,0 -1.550508,-0.187544zm8.128422,-7.642424c4.134689,-3.094478 4.040719,-3.328909 -0.939702,-3.328909l-4.228659,0l0,3.282023l0,3.328909l1.315583,-0.703291c0.704777,-0.375088 2.443225,-1.547239 3.852778,-2.578732zm4.69851,-7.314222c0,-1.125265 -0.09397,-1.172151 -3.476897,-1.172151c-3.101017,0 -3.617853,-0.140658 -4.228659,-1.031493c-0.422866,-0.562632 -0.751762,-1.922328 -0.798747,-2.95382c-0.046985,-3.235137 -0.845732,-0.421974 -0.845732,3.18825l-0.046985,3.141364l4.69851,0l4.69851,0l0,-1.172151zm8.363348,-6.657817l0.140955,-2.48496l-6.577914,0l-6.624899,0l0,2.578732l0,2.625618l6.483944,-0.140658l6.436959,-0.140658l0.140955,-2.438074z"/>
   <path stroke="null" id="svg_8" d="m150.644793,272.139726c-2.161315,-2.344302 0.610806,-5.345008 3.476897,-3.844655c0.610806,0.328202 0.892717,0.984607 0.892717,2.109872c0,2.438074 -2.772121,3.516453 -4.369614,1.734783z"/>
   <path stroke="null" id="svg_9" d="m242.218754,272.374156c-1.785434,-1.312809 -0.610806,-4.547946 1.597493,-4.547946c1.174628,0 2.819106,1.359695 2.819106,2.391188c0,1.125265 -1.597493,2.766276 -2.725136,2.766276c-0.469851,0 -1.221613,-0.281316 -1.691464,-0.609518z"/>
   <path stroke="null" id="svg_10" d="m201.905537,265.435023c-1.221613,-0.656405 -1.080657,-1.219037 0.986687,-3.891541c0.986687,-1.312809 2.161315,-3.094478 2.584181,-3.938427c0.657791,-1.265923 1.033672,-1.547239 2.067344,-1.406581c2.443225,0.281316 1.738449,2.625618 -2.39624,8.017512c-1.409553,1.828555 -1.926389,2.0161 -3.241972,1.219037z"/>
   <path stroke="null" id="svg_11" d="m211.396528,259.621154c-0.469851,-0.562632 -0.469851,-0.843949 0,-1.406581c0.516836,-0.609518 1.926389,-0.703291 8.880184,-0.609518l8.269378,0.140658l0,1.172151l0,1.172151l-8.269378,0.140658c-6.953795,0.093772 -8.363348,0 -8.880184,-0.609518z"/>
   <path stroke="null" id="svg_12" d="m22.751348,242.179549c-4.557555,-1.828555 -8.363348,-5.907641 -9.631946,-10.221156c-0.375881,-1.359695 -0.469851,-17.441606 -0.375881,-59.310836l0.140955,-57.435395l1.080657,-2.0161c1.691464,-3.141364 4.60454,-6.048299 7.564601,-7.45488l2.631166,-1.312809l175.254426,0l175.254426,0l2.631166,1.312809c2.960061,1.406581 5.873138,4.313515 7.564601,7.45488l1.080657,2.0161l0,58.373116l0,58.373116l-1.174628,2.344302c-1.409553,2.860048 -4.416599,5.860755 -7.376661,7.314222l-2.255285,1.125265l-175.254426,0.093772c-160.172208,0.093772 -175.395381,0.046886 -177.13383,-0.656405zm223.132243,-41.681687c0.610806,-0.562632 0.751762,-1.828555 0.751762,-5.860755l0,-5.110578l13.343769,0c7.329676,0 13.672664,-0.140658 14.09553,-0.281316c1.080657,-0.421974 1.080657,-6.986019 0,-7.407994c-0.422866,-0.140658 -6.765855,-0.281316 -14.09553,-0.281316l-13.343769,0l0,-13.831381l0,-13.831381l13.061858,-0.093772l13.014873,-0.140658l0.140955,-3.235137c0.09397,-2.297416 -0.046985,-3.375795 -0.469851,-3.610225c-0.798747,-0.515746 -61.503497,-0.515746 -62.302244,0c-0.422866,0.23443 -0.563821,1.312809 -0.469851,3.610225l0.140955,3.235137l13.061858,0.140658l13.014873,0.093772l0,13.831381l0,13.831381l-13.578694,0c-15.646039,0 -15.082217,-0.140658 -15.082217,3.985313c0,4.125971 -0.563821,3.985313 15.082217,3.985313l13.578694,0l0,5.110578c0,6.517159 0.09397,6.610931 5.403287,6.610931c2.960061,0 4.134689,-0.187544 4.651525,-0.750177zm-155.802594,-5.43878l0.140955,-5.43878l11.840245,-0.187544c12.732962,-0.140658 13.296784,-0.281316 15.693024,-2.813162c1.644479,-1.734783 2.020359,-4.641718 2.020359,-16.316341c0,-11.674623 -0.375881,-14.581557 -2.020359,-16.316341c-2.39624,-2.531846 -2.960061,-2.672504 -15.693024,-2.813162l-11.840245,-0.187544l-0.140955,-3.563339l-0.140955,-3.610225l-5.168361,0l-5.168361,0l-0.140955,3.610225l-0.140955,3.563339l-11.840245,0.187544c-12.732962,0.140658 -13.296784,0.281316 -15.693024,2.813162c-1.644479,1.734783 -2.020359,4.641718 -2.020359,16.316341c0,11.674623 0.375881,14.581557 2.020359,16.316341c2.39624,2.531846 2.960061,2.672504 15.740009,2.813162l11.840245,0.187544l0,5.251236c0,2.906934 0.140955,5.43878 0.328896,5.626324c0.18794,0.140658 2.537195,0.23443 5.262331,0.187544l4.980421,-0.140658l0.140955,-5.485666zm104.682804,3.328909c1.456538,-0.703291 2.255285,-1.500353 2.960061,-2.95382c0.939702,-1.922328 0.986687,-2.71939 0.986687,-23.021044c0,-20.301654 -0.046985,-21.098717 -0.986687,-23.021044c-0.704777,-1.453467 -1.503523,-2.25053 -2.960061,-2.95382c-1.926389,-0.984607 -2.678151,-0.984607 -30.352375,-0.984607c-27.674224,0 -28.425986,0 -30.352375,0.984607c-1.456538,0.703291 -2.255285,1.500353 -2.960061,2.95382c-0.939702,1.922328 -0.986687,2.71939 -0.986687,23.021044c0,20.254768 0.046985,21.098717 0.986687,23.021044c0.657791,1.406581 1.503523,2.25053 2.913076,2.95382c1.926389,0.984607 2.584181,0.984607 30.352375,0.984607c27.721209,0 28.472971,0 30.39936,-0.984607zm107.783821,-0.375088c2.2083,-0.515746 5.967108,-1.781669 8.410333,-2.813162c2.443225,-1.078379 4.69851,-1.922328 5.027406,-1.922328c0.328896,0 2.584181,0.843949 4.980421,1.922328c6.342989,2.71939 10.665618,3.657111 19.169921,3.985313c8.598273,0.375088 8.927169,0.23443 8.927169,-3.563339c0,-3.891541 0.328896,-3.750883 -7.705557,-3.750883c-4.651525,0 -8.128422,-0.281316 -10.148782,-0.703291c-4.134689,-0.984607 -6.108063,-1.641011 -6.108063,-2.062986c0,-0.23443 1.973374,-1.265923 4.322629,-2.344302c6.671884,-3.047592 8.833199,-5.954527 8.833199,-11.721509l0,-2.391188l5.826152,0l5.826152,0l0.18794,-3.375795c0.09397,-1.875441 0.09397,-3.563339 0,-3.750883c-0.09397,-0.23443 -2.678151,-0.375088 -5.779167,-0.375088l-5.591227,0l0,-2.766276c0,-3.235137 -0.140955,-3.328909 -4.51057,-3.328909c-4.322629,0 -4.88645,0.375088 -4.88645,3.516453l0,2.578732l-12.685977,0l-12.685977,0l0,-2.297416c0,-3.235137 -0.704777,-3.797769 -4.69851,-3.797769c-4.60454,0 -4.69851,0.093772 -4.69851,3.328909l0,2.71939l-6.202033,0.140658l-6.249018,0.140658l-0.140955,3.235137c-0.09397,2.297416 0.046985,3.375795 0.469851,3.610225c0.328896,0.23443 2.960061,0.421974 5.826152,0.421974l5.262331,0l0.328896,3.141364c0.610806,5.67321 2.537195,8.064398 9.068124,11.158877c2.11433,0.984607 3.852778,1.969214 3.852778,2.109872c0,0.187544 -1.550508,0.797063 -3.382927,1.406581c-2.866091,0.890835 -4.745495,1.125265 -11.417379,1.312809c-4.416599,0.093772 -8.269378,0.421974 -8.551288,0.656405c-0.939702,0.750177 -0.798747,5.298122 0.18794,6.282729c0.704777,0.703291 1.597493,0.750177 7.893497,0.515746c4.134689,-0.187544 8.692244,-0.703291 11.041499,-1.219037zm-71.088457,-21.05183c0.845732,-0.515746 -7.799527,-17.019631 -9.30305,-17.769808c-1.221613,-0.656405 -8.316363,-0.797063 -9.20908,-0.23443c-0.845732,0.515746 7.799527,17.019631 9.30305,17.769808c1.221613,0.656405 8.316363,0.797063 9.20908,0.23443zm28.285031,-0.23443c1.503523,-0.750177 10.148782,-17.254062 9.30305,-17.769808c-0.892717,-0.562632 -7.987467,-0.421974 -9.20908,0.23443c-1.503523,0.750177 -10.148782,17.254062 -9.30305,17.769808c0.892717,0.562632 7.987467,0.421974 9.20908,-0.23443zm30.30539,-18.426212c0.140955,-0.421974 0.281911,-1.453467 0.281911,-2.344302l0,-1.594125l25.841805,0l25.841805,0l0,1.781669c0,2.766276 0.328896,2.95382 4.275644,2.813162l3.476897,-0.140658l0.140955,-3.047592c0.140955,-3.703997 -0.798747,-5.860755 -3.194987,-7.267336c-1.503523,-0.843949 -2.584181,-0.937721 -13.484724,-1.078379l-11.88723,-0.187544l0,-1.312809c0,-2.297416 -0.986687,-2.813162 -5.403287,-2.813162c-4.416599,0 -5.403287,0.515746 -5.403287,2.813162l0,1.312809l-11.840245,0.187544c-10.947528,0.140658 -12.028186,0.23443 -13.531709,1.078379c-0.892717,0.562632 -2.020359,1.687897 -2.443225,2.578732c-0.986687,1.875441 -1.127642,6.564045 -0.281911,7.407994c0.328896,0.328202 1.926389,0.562632 3.946748,0.562632c2.631166,0 3.429912,-0.140658 3.664838,-0.750177z"/>
   <path stroke="null" id="svg_13" d="m59.634652,170.772115l0,-11.252649l9.631946,0l9.631946,0l0,11.252649l0,11.252649l-9.631946,0l-9.631946,0l0,-11.252649z"/>
   <path stroke="null" id="svg_14" d="m90.174968,170.772115l0,-11.252649l9.631946,0l9.631946,0l0,11.252649l0,11.252649l-9.631946,0l-9.631946,0l0,-11.252649z"/>
   <path stroke="null" id="svg_15" d="m139.509324,172.413126l0,-19.926566l24.902103,0l24.902103,0l0,19.926566l0,19.926566l-24.902103,0l-24.902103,0l0,-19.926566zm44.635846,10.080498l0,-4.688604l-3.758808,0l-3.758808,0l0,1.406581l0,1.406581l-3.758808,0l-3.758808,0l0,-3.282023l0,-3.282023l6.342989,0l6.342989,0l0,-2.813162l0,-2.813162l-6.342989,0l-6.342989,0l0,-2.578732l0,-2.578732l7.517616,0l7.517616,0l0,-3.047592l0,-3.047592l-19.733742,0l-19.733742,0l0,3.047592l0,3.047592l7.517616,0l7.517616,0l0,2.344302l0,2.344302l-6.342989,0l-6.342989,0l0,3.047592l0,3.047592l6.342989,0l6.342989,0l0,3.282023l0,3.282023l-7.517616,0l-7.517616,0l0,3.282023l0,3.282023l19.733742,0l19.733742,0l0,-4.688604z"/>
   <path stroke="null" id="svg_16" d="m310.488105,182.681168c-2.960061,-1.406581 -5.732182,-3.047592 -6.155048,-3.610225c-0.563821,-0.703291 -0.845732,-1.875441 -0.845732,-3.703997l0,-2.71939l12.685977,0l12.685977,0l0,2.344302c0,3.750883 -0.563821,4.407287 -6.061078,7.22045c-2.725136,1.359695 -5.403287,2.625618 -5.967108,2.813162c-0.657791,0.187544 -2.678151,-0.562632 -6.342989,-2.344302z"/>
  </g>
 </g>
</svg>